<?xml version="1.0" encoding="utf-8"?>
<!DOCTYPE svg PUBLIC "-//W3C//DTD SVG 1.1//EN" "http://www.w3.org/Graphics/SVG/1.1/DTD/svg11.dtd">
<svg xmlns="http://www.w3.org/2000/svg" xmlns:xlink="http://www.w3.org/1999/xlink" width="201" height="201" viewBox="0 0 201 201" version="1.1">
 <circle fill="#8BBD80" cx="100.5" cy="100.5" r="94"/>
 <circle opacity="0.7687" fill="none" stroke="#7D7D7D" stroke-width="1.0021" cx="100.5" cy="100.5" r="94"/>
 <circle fill="#FFFFFF" cx="100.5" cy="100.5" r="56.48"/>
 <circle opacity="0.1905" fill="none" stroke="#000000" stroke-width="1.0021" cx="100.5" cy="100.5" r="56.48"/>
 <path fill="#FFFFFF" d="M131.58,11.8l-4.25,7.42c3.8,1.25,7.48,2.75,11.02,4.5l4.17-7.28C139,14.66,135.35,13.12,131.58,11.8z M59.96,15.68c-3.59,1.72-7.04,3.68-10.36,5.83l5.09,6.95c3.33-2.13,6.79-4.1,10.41-5.76L59.96,15.68z M152.01,21.91l-4.17,7.29c3.33,2.21,6.44,4.69,9.42,7.33l4.27-7.47C158.52,26.48,155.34,24.09,152.01,21.91z M40.63,28.05c-3.07,2.54-5.95,5.28-8.67,8.18l5.22,7.13c2.66-2.96,5.48-5.79,8.53-8.36L40.63,28.05z M193.11,84.5l-8.53,0.01c0.72,3.86,1.2,7.79,1.39,11.81l8.42-0.01C194.21,92.31,193.78,88.37,193.11,84.5z M16.69,84.78l-8.86,0.01c-0.65,3.87-1.08,7.81-1.24,11.83l8.74-0.01C15.51,92.58,15.98,88.64,16.69,84.78z M194.38,105.28l-8.46,0.01c-0.23,4.02-0.75,7.96-1.52,11.81l8.59-0.01C193.69,113.23,194.18,109.3,194.38,105.28z M15.41,105.57l-8.77,0.01c0.21,4.01,0.7,7.95,1.4,11.81l8.89-0.01C16.16,113.54,15.65,109.59,15.41,105.57z M163.86,157.63c-2.67,2.95-5.5,5.75-8.56,8.3l5.11,6.98c3.06-2.53,5.94-5.27,8.66-8.17L163.86,157.63z M44.27,164.38l-4.48,7.83c3.02,2.56,6.2,4.93,9.53,7.1l4.38-7.65C50.38,169.47,47.25,167.01,44.27,164.38z M146.31,172.44c-3.35,2.13-6.82,4.07-10.46,5.72l5.22,7.14c3.6-1.72,7.05-3.7,10.37-5.85L146.31,172.44z M63.2,177.11l-4.37,7.64c3.54,1.76,7.21,3.29,10.99,4.6l4.45-7.77C70.45,180.34,66.75,178.85,63.2,177.11z"/>
 <path opacity="0.245" fill="none" stroke="#666666" stroke-width="0.4545" d="M131.58,11.8l-4.25,7.42c3.8,1.25,7.48,2.75,11.02,4.5l4.17-7.28C139,14.66,135.35,13.12,131.58,11.8z M59.96,15.68c-3.59,1.72-7.04,3.68-10.36,5.83l5.09,6.95c3.33-2.13,6.79-4.1,10.41-5.76L59.96,15.68z M152.01,21.91l-4.17,7.29c3.33,2.21,6.44,4.69,9.42,7.33l4.27-7.47C158.52,26.48,155.34,24.09,152.01,21.91z M40.63,28.05c-3.07,2.54-5.95,5.28-8.67,8.18l5.22,7.13c2.66-2.96,5.48-5.79,8.53-8.36L40.63,28.05z M193.11,84.5l-8.53,0.01c0.72,3.86,1.2,7.79,1.39,11.81l8.42-0.01C194.21,92.31,193.78,88.37,193.11,84.5z M16.69,84.78l-8.86,0.01c-0.65,3.87-1.08,7.81-1.24,11.83l8.74-0.01C15.51,92.58,15.98,88.64,16.69,84.78z M194.38,105.28l-8.46,0.01c-0.23,4.02-0.75,7.96-1.52,11.81l8.59-0.01C193.69,113.23,194.18,109.3,194.38,105.28z M15.41,105.57l-8.77,0.01c0.21,4.01,0.7,7.95,1.4,11.81l8.89-0.01C16.16,113.54,15.65,109.59,15.41,105.57z M163.86,157.63c-2.67,2.95-5.5,5.75-8.56,8.3l5.11,6.98c3.06-2.53,5.94-5.27,8.66-8.17L163.86,157.63z M44.27,164.38l-4.48,7.83c3.02,2.56,6.2,4.93,9.53,7.1l4.38-7.65C50.38,169.47,47.25,167.01,44.27,164.38z M146.31,172.44c-3.35,2.13-6.82,4.07-10.46,5.72l5.22,7.14c3.6-1.72,7.05-3.7,10.37-5.85L146.31,172.44z M63.2,177.11l-4.37,7.64c3.54,1.76,7.21,3.29,10.99,4.6l4.45-7.77C70.45,180.34,66.75,178.85,63.2,177.11z"/>
 <path d="M84.64,109.19h12.34v5.31H76.59v-5.31l10.25-9.04c0.91-0.83,1.59-1.63,2.02-2.42c0.44-0.79,0.66-1.61,0.66-2.46c0-1.31-0.44-2.37-1.32-3.17s-2.05-1.2-3.52-1.2c-1.13,0-2.36,0.24-3.7,0.72s-2.77,1.19-4.29,2.14V87.6c1.63-0.54,3.23-0.95,4.82-1.23c1.59-0.28,3.15-0.42,4.67-0.42c3.35,0,5.96,0.74,7.81,2.22c1.86,1.48,2.79,3.54,2.79,6.18c0,1.53-0.39,2.95-1.18,4.28c-0.79,1.32-2.45,3.09-4.97,5.31L84.64,109.19z"/>
 <path d="M104.37,86.45h17.99v5.31h-12.23v4.38c0.55-0.15,1.11-0.27,1.67-0.35c0.56-0.08,1.14-0.12,1.74-0.12c3.43,0,6.1,0.85,8.01,2.56c1.91,1.71,2.86,4.09,2.86,7.14c0,3.03-1.04,5.4-3.11,7.11c-2.08,1.71-4.96,2.57-8.64,2.57c-1.59,0-3.17-0.15-4.73-0.46c-1.56-0.31-3.11-0.77-4.66-1.4v-5.71c1.53,0.89,2.99,1.55,4.36,1.99c1.38,0.44,2.67,0.66,3.89,0.66c1.76,0,3.14-0.43,4.16-1.28c1.01-0.86,1.52-2.01,1.52-3.48c0-1.47-0.51-2.64-1.52-3.49c-1.01-0.85-2.4-1.27-4.16-1.27c-1.04,0-2.16,0.13-3.34,0.4c-1.18,0.27-2.45,0.69-3.81,1.25V86.45z"/>
</svg>
