<?xml version="1.0" encoding="utf-8"?>
<!DOCTYPE svg PUBLIC "-//W3C//DTD SVG 1.1//EN" "http://www.w3.org/Graphics/SVG/1.1/DTD/svg11.dtd">
<svg xmlns="http://www.w3.org/2000/svg" xmlns:xlink="http://www.w3.org/1999/xlink" width="201" height="201" viewBox="0 0 201 201" version="1.1">
 <circle fill="#FFFFFF" cx="100.5" cy="100.5" r="94"/>
 <circle opacity="0.7687" fill="none" stroke="#7D7D7D" stroke-width="1.0021" cx="100.5" cy="100.5" r="94"/>
 <circle fill="#FFFFFF" cx="100.5" cy="100.5" r="56.48"/>
 <circle opacity="0.1905" fill="none" stroke="#000000" stroke-width="1.0021" cx="100.5" cy="100.5" r="56.48"/>
 <path d="M131.58,11.8l-4.25,7.42c3.8,1.25,7.48,2.75,11.02,4.5l4.17-7.28C139,14.66,135.35,13.12,131.58,11.8z M59.96,15.68c-3.59,1.72-7.04,3.68-10.36,5.83l5.09,6.95c3.33-2.13,6.79-4.1,10.41-5.76L59.96,15.68z M152.01,21.91l-4.17,7.29c3.33,2.21,6.44,4.69,9.42,7.33l4.27-7.47C158.52,26.48,155.34,24.09,152.01,21.91z M40.63,28.05c-3.07,2.54-5.95,5.28-8.67,8.18l5.22,7.13c2.66-2.96,5.48-5.79,8.53-8.36L40.63,28.05z M193.11,84.5l-8.53,0.01c0.72,3.86,1.2,7.79,1.39,11.81l8.42-0.01C194.21,92.31,193.78,88.37,193.11,84.5z M16.69,84.78l-8.86,0.01c-0.65,3.87-1.08,7.81-1.24,11.83l8.74-0.01C15.51,92.58,15.98,88.64,16.69,84.78z M194.38,105.28l-8.46,0.01c-0.23,4.02-0.75,7.96-1.52,11.81l8.59-0.01C193.69,113.23,194.18,109.3,194.38,105.28z M15.41,105.57l-8.77,0.01c0.21,4.01,0.7,7.95,1.4,11.81l8.89-0.01C16.16,113.54,15.65,109.59,15.41,105.57z M163.86,157.63c-2.67,2.95-5.5,5.75-8.56,8.3l5.11,6.98c3.06-2.53,5.94-5.27,8.66-8.17L163.86,157.63z M44.27,164.38l-4.48,7.83c3.02,2.56,6.2,4.93,9.53,7.1l4.38-7.65C50.38,169.47,47.25,167.01,44.27,164.38z M146.31,172.44c-3.35,2.13-6.82,4.07-10.46,5.72l5.22,7.14c3.6-1.72,7.05-3.7,10.37-5.85L146.31,172.44z M63.2,177.11l-4.37,7.64c3.54,1.76,7.21,3.29,10.99,4.6l4.45-7.77C70.45,180.34,66.75,178.85,63.2,177.11z"/>
 <path opacity="0.245" fill="none" stroke="#666666" stroke-width="0.4545" d="M131.58,11.8l-4.25,7.42c3.8,1.25,7.48,2.75,11.02,4.5l4.17-7.28C139,14.66,135.35,13.12,131.58,11.8z M59.96,15.68c-3.59,1.72-7.04,3.68-10.36,5.83l5.09,6.95c3.33-2.13,6.79-4.1,10.41-5.76L59.96,15.68z M152.01,21.91l-4.17,7.29c3.33,2.21,6.44,4.69,9.42,7.33l4.27-7.47C158.52,26.48,155.34,24.09,152.01,21.91z M40.63,28.05c-3.07,2.54-5.95,5.28-8.67,8.18l5.22,7.13c2.66-2.96,5.48-5.79,8.53-8.36L40.63,28.05z M193.11,84.5l-8.53,0.01c0.72,3.86,1.2,7.79,1.39,11.81l8.42-0.01C194.21,92.31,193.78,88.37,193.11,84.5z M16.69,84.78l-8.86,0.01c-0.65,3.87-1.08,7.81-1.24,11.83l8.74-0.01C15.51,92.58,15.98,88.64,16.69,84.78z M194.38,105.28l-8.46,0.01c-0.23,4.02-0.75,7.96-1.52,11.81l8.59-0.01C193.69,113.23,194.18,109.3,194.38,105.28z M15.41,105.57l-8.77,0.01c0.21,4.01,0.7,7.95,1.4,11.81l8.89-0.01C16.16,113.54,15.65,109.59,15.41,105.57z M163.86,157.63c-2.67,2.95-5.5,5.75-8.56,8.3l5.11,6.98c3.06-2.53,5.94-5.27,8.66-8.17L163.86,157.63z M44.27,164.38l-4.48,7.83c3.02,2.56,6.2,4.93,9.53,7.1l4.38-7.65C50.38,169.47,47.25,167.01,44.27,164.38z M146.31,172.44c-3.35,2.13-6.82,4.07-10.46,5.72l5.22,7.14c3.6-1.72,7.05-3.7,10.37-5.85L146.31,172.44z M63.2,177.11l-4.37,7.64c3.54,1.76,7.21,3.29,10.99,4.6l4.45-7.77C70.45,180.34,66.75,178.85,63.2,177.11z"/>
 <polygon points="90.75,109.5 97.15,109.5 97.15,91.4 90.6,92.75 90.6,87.85 97.1,86.5 104,86.5 104,109.5 110.4,109.5 110.4,114.5 90.75,114.5 "/>
</svg>
