<?xml version="1.0" encoding="utf-8"?>
<!DOCTYPE svg PUBLIC "-//W3C//DTD SVG 1.1//EN" "http://www.w3.org/Graphics/SVG/1.1/DTD/svg11.dtd">
<svg xmlns="http://www.w3.org/2000/svg" xmlns:xlink="http://www.w3.org/1999/xlink" width="201" height="201" viewBox="0 0 201 201" version="1.1">
 <circle cx="100.5" cy="100.5" r="94"/>
 <circle opacity="0.7687" fill="none" stroke="#7D7D7D" stroke-width="1.0021" cx="100.5" cy="100.5" r="94"/>
 <circle fill="#FFFFFF" cx="100.5" cy="100.5" r="56.48"/>
 <circle opacity="0.1905" fill="none" stroke="#000000" stroke-width="1.0021" cx="100.5" cy="100.5" r="56.48"/>
 <path fill="#FFFFFF" d="M131.58,11.8l-4.25,7.42c3.8,1.25,7.48,2.75,11.02,4.5l4.17-7.28C139,14.66,135.35,13.12,131.58,11.8z M59.96,15.68c-3.59,1.72-7.04,3.68-10.36,5.83l5.09,6.95c3.33-2.13,6.79-4.1,10.41-5.76L59.96,15.68z M152.01,21.91l-4.17,7.29c3.33,2.21,6.44,4.69,9.42,7.33l4.27-7.47C158.52,26.48,155.34,24.09,152.01,21.91z M40.63,28.05c-3.07,2.54-5.95,5.28-8.67,8.18l5.22,7.13c2.66-2.96,5.48-5.79,8.53-8.36L40.63,28.05z M193.11,84.5l-8.53,0.01c0.72,3.86,1.2,7.79,1.39,11.81l8.42-0.01C194.21,92.31,193.78,88.37,193.11,84.5z M16.69,84.78l-8.86,0.01c-0.65,3.87-1.08,7.81-1.24,11.83l8.74-0.01C15.51,92.58,15.98,88.64,16.69,84.78z M194.38,105.28l-8.46,0.01c-0.23,4.02-0.75,7.96-1.52,11.81l8.59-0.01C193.69,113.23,194.18,109.3,194.38,105.28z M15.41,105.57l-8.77,0.01c0.21,4.01,0.7,7.95,1.4,11.81l8.89-0.01C16.16,113.54,15.65,109.59,15.41,105.57z M163.86,157.63c-2.67,2.95-5.5,5.75-8.56,8.3l5.11,6.98c3.06-2.53,5.94-5.27,8.66-8.17L163.86,157.63z M44.27,164.38l-4.48,7.83c3.02,2.56,6.2,4.93,9.53,7.1l4.38-7.65C50.38,169.47,47.25,167.01,44.27,164.38z M146.31,172.44c-3.35,2.13-6.82,4.07-10.46,5.72l5.22,7.14c3.6-1.72,7.05-3.7,10.37-5.85L146.31,172.44z M63.2,177.11l-4.37,7.64c3.54,1.76,7.21,3.29,10.99,4.6l4.45-7.77C70.45,180.34,66.75,178.85,63.2,177.11z"/>
 <path opacity="0.245" fill="none" stroke="#666666" stroke-width="0.4545" d="M131.58,11.8l-4.25,7.42c3.8,1.25,7.48,2.75,11.02,4.5l4.17-7.28C139,14.66,135.35,13.12,131.58,11.8z M59.96,15.68c-3.59,1.72-7.04,3.68-10.36,5.83l5.09,6.95c3.33-2.13,6.79-4.1,10.41-5.76L59.96,15.68z M152.01,21.91l-4.17,7.29c3.33,2.21,6.44,4.69,9.42,7.33l4.27-7.47C158.52,26.48,155.34,24.09,152.01,21.91z M40.63,28.05c-3.07,2.54-5.95,5.28-8.67,8.18l5.22,7.13c2.66-2.96,5.48-5.79,8.53-8.36L40.63,28.05z M193.11,84.5l-8.53,0.01c0.72,3.86,1.2,7.79,1.39,11.81l8.42-0.01C194.21,92.31,193.78,88.37,193.11,84.5z M16.69,84.78l-8.86,0.01c-0.65,3.87-1.08,7.81-1.24,11.83l8.74-0.01C15.51,92.58,15.98,88.64,16.69,84.78z M194.38,105.28l-8.46,0.01c-0.23,4.02-0.75,7.96-1.52,11.81l8.59-0.01C193.69,113.23,194.18,109.3,194.38,105.28z M15.41,105.57l-8.77,0.01c0.21,4.01,0.7,7.95,1.4,11.81l8.89-0.01C16.16,113.54,15.65,109.59,15.41,105.57z M163.86,157.63c-2.67,2.95-5.5,5.75-8.56,8.3l5.11,6.98c3.06-2.53,5.94-5.27,8.66-8.17L163.86,157.63z M44.27,164.38l-4.48,7.83c3.02,2.56,6.2,4.93,9.53,7.1l4.38-7.65C50.38,169.47,47.25,167.01,44.27,164.38z M146.31,172.44c-3.35,2.13-6.82,4.07-10.46,5.72l5.22,7.14c3.6-1.72,7.05-3.7,10.37-5.85L146.31,172.44z M63.2,177.11l-4.37,7.64c3.54,1.76,7.21,3.29,10.99,4.6l4.45-7.77C70.45,180.34,66.75,178.85,63.2,177.11z"/>
 <polygon points="63.58,109.49 69.99,109.49 69.99,91.36 63.43,92.71 63.43,87.8 69.94,86.45 76.86,86.45 76.86,109.49 83.27,109.49 83.27,114.5 63.58,114.5 "/>
 <path d="M110.8,100.51c0,4.65-1,8.24-3.01,10.76c-2,2.52-4.85,3.79-8.53,3.79c-3.7,0-6.55-1.26-8.55-3.79s-3.01-6.11-3.01-10.76	c0-4.66,1-8.25,3.01-10.78c2-2.52,4.86-3.79,8.55-3.79c3.68,0,6.53,1.26,8.53,3.79C109.79,92.26,110.8,95.85,110.8,100.51z M103.58,100.47c0-3.51-0.33-5.98-0.99-7.41s-1.77-2.15-3.33-2.15c-1.56,0-2.68,0.72-3.34,2.15s-1,3.91-1,7.41c0,3.54,0.33,6.04,1,7.5s1.78,2.18,3.34,2.18c1.55,0,2.66-0.73,3.32-2.18C103.25,106.51,103.58,104.01,103.58,100.47z"/>
 <path d="M137.57,100.51c0,4.65-1,8.24-3.01,10.76c-2,2.52-4.85,3.79-8.53,3.79c-3.7,0-6.55-1.26-8.55-3.79s-3.01-6.11-3.01-10.76c0-4.66,1-8.25,3.01-10.78c2-2.52,4.86-3.79,8.55-3.79c3.68,0,6.53,1.26,8.53,3.79C136.57,92.26,137.57,95.85,137.57,100.51z M130.36,100.47c0-3.51-0.33-5.98-0.99-7.41c-0.66-1.43-1.77-2.15-3.33-2.15c-1.56,0-2.68,0.72-3.34,2.15s-1,3.91-1,7.41c0,3.54,0.33,6.04,1,7.5s1.78,2.18,3.34,2.18c1.55,0,2.66-0.73,3.32-2.18S130.36,104.01,130.36,100.47z"/>
</svg>
